Coordinates
version=1
nRows=6
nColumns=34
inDegrees=yes

Units are S.I. units (second, meters, Newtons, ...)
If the header above contains a line with 'inDegrees', this indicates whether rotational values are in degrees (yes) or radians (no).

endheader
time	pelvis_tilt	pelvis_list	pelvis_rotation	pelvis_tx	pelvis_ty	pelvis_tz	hip_flexion_r	hip_adduction_r	hip_rotation_r	knee_angle_r	ankle_angle_r	subtalar_angle_r	mtp_angle_r	hip_flexion_l	hip_adduction_l	hip_rotation_l	knee_angle_l	ankle_angle_l	subtalar_angle_l	mtp_angle_l	lumbar_extension	lumbar_bending	lumbar_rotation	arm_flex_r	arm_add_r	arm_rot_r	elbow_flex_r	pro_sup_r	arm_flex_l	arm_add_l	arm_rot_l	elbow_flex_l	pro_sup_l
     11.86666670	     12.77764585	      0.84829710	     -9.40209052	     -0.62593914	      0.61115583	     -0.67161203	     61.39078318	     11.12004985	     -2.62363701	     22.36211863	      2.63100875	     13.44287488	      0.00000000	     65.01092198	     -1.89131298	     -7.83750748	     29.73732641	      0.57101147	      2.61781655	      0.00000000	    -32.72684795	     -2.64478890	     -3.89706992	    -19.21477567	    -28.97847509	      7.65990154	     79.61345082	     82.12231655	     47.97021979	    -11.53338553	     27.60277114	     48.59539793	     62.31388221
     11.88333330	     12.59585873	      0.67141254	     -8.29522496	     -0.61979511	      0.61198914	     -0.66581683	     61.82506435	     10.82911358	     -3.08333350	     23.32357489	      3.52123381	     12.86363480	      0.00000000	     65.47206634	     -1.31722357	     -7.67124298	     30.33252290	      0.80308875	      2.64744891	      0.00000000	    -32.28986720	     -2.84774659	     -2.72383362	    -17.38899235	    -29.81095810	      8.68262564	     79.77265405	     82.27114991	     47.56874218	    -12.77049546	     22.80320313	     53.05753139	     63.37026898
     11.90000000	     12.35438242	      0.50438199	     -7.75746749	     -0.61788064	      0.61376738	     -0.66994662	     62.23758643	     10.55607828	     -3.35036975	     24.29946067	      5.12161103	     12.38428909	      0.00000000	     65.64537451	     -0.98091585	     -7.54150005	     30.18123882	      0.96694580	      2.88694386	      0.00000000	    -31.68940949	     -3.23497233	     -0.23826118	    -15.85140217	    -30.90317869	      8.47796032	     80.18877634	     82.35011466	     49.12014956	    -13.13003643	     22.07559435	     54.39657370	     63.48641776
     11.91666670	     12.41553189	      0.29612265	     -7.73019371	     -0.62330377	      0.61972659	     -0.67083414	     62.24850461	     10.39507935	     -3.39865672	     24.74838941	      5.20721582	     11.62515443	      0.00000000	     65.01957265	     -0.95782654	     -7.58356171	     29.18609466	      0.58780266	      3.24782177	      0.00000000	    -32.29568624	     -3.34363493	      1.71478272	    -11.94992787	    -32.52629904	      8.80010849	     81.48052768	     83.10223719	     50.46657953	    -13.62545227	     18.96865964	     57.08218558	     63.92761310
     11.93333330	     11.84682377	     -0.08939709	     -7.74638916	     -0.61653768	      0.61551978	     -0.67019260	     63.35348562	     10.15681104	     -4.44059043	     26.19448167	      7.34005042	     10.62891587	      0.00000000	     65.54979151	     -1.00946634	     -6.17874841	     28.82123144	     -0.02075927	      3.12606471	      0.00000000	    -31.82670907	     -3.28300520	      3.92862139	     -8.03555959	    -34.38801264	      9.19453908	     82.73870165	     84.04538355	     51.53733858	    -13.67597029	     16.13152957	     59.52593815	     64.51933040
     11.95000000	     11.44066008	     -0.37460160	     -7.30987677	     -0.61751407	      0.61561941	     -0.67076589	     64.12695722	      9.68845916	     -4.66118952	     26.36287883	      6.54139664	     10.90812288	      0.00000000	     66.49528670	     -0.94945464	     -5.43691988	     30.05662149	      0.58559217	      2.69897319	      0.00000000	    -31.74715486	     -3.23227349	      6.16804903	     -4.11166705	    -35.66366634	      8.34686938	     83.96263851	     84.21228898	     53.93399357	    -13.49870906	     15.47853114	     60.58109126	     64.62487847
